<svg width="621" height="1080" viewBox="0 0 621 1080" fill="none" xmlns="http://www.w3.org/2000/svg">
<path opacity="0.0416667" d="M300.947 555.623C262.636 466.607 167.498 483.285 89.3777 425.937C-69.6086 309.225 -71.3013 115.634 -261.215 62.426C-444.067 11.1969 -631.26 16.21 -734.046 175.88C-874.861 394.624 -279.946 439.96 -319.236 697.126C-340.005 833.065 -486.974 860.797 -503.263 997.345C-516.782 1110.67 -544.81 1250.16 -435.076 1281.52C-313.681 1316.22 -392.345 1003.18 -266.118 1005.89C-192.429 1007.47 -176.91 1087.46 -105.207 1104.52C-0.98521 1129.32 122.71 1140.36 161.549 1040.52C188.492 971.256 114.586 929.742 117.148 855.47C121.883 718.206 355.243 681.781 300.947 555.623Z" stroke="url(#paint0_linear_1794_78)" stroke-width="7"/>
<path opacity="0.0833333" d="M304.372 538.704C264.822 450.232 169.926 468.236 91.0133 411.984C-69.587 297.503 -73.9825 103.955 -264.621 53.4038C-448.17 4.7327 -635.274 12.3589 -735.821 173.448C-873.569 394.138 -278.079 431.162 -313.775 688.852C-332.643 825.068 -479.211 854.849 -493.592 991.612C-505.527 1105.11 -531.605 1244.98 -421.443 1274.81C-299.576 1307.81 -382.603 995.892 -256.35 996.843C-182.647 997.398 -166.013 1077.16 -94.0774 1093.22C10.4801 1116.56 134.318 1125.87 171.759 1025.5C197.732 955.866 123.254 915.388 124.778 841.088C127.596 703.771 360.425 664.091 304.372 538.704Z" stroke="url(#paint1_linear_1794_78)" stroke-width="7"/>
<path opacity="0.125" d="M307.63 521.654C266.849 433.743 172.214 453.07 92.5229 397.925C-69.6602 285.698 -76.7576 92.2296 -268.083 44.3456C-452.294 -1.75807 -639.274 8.47982 -737.562 170.957C-872.214 393.548 -276.266 422.255 -308.36 680.418C-325.325 816.884 -471.462 848.709 -483.932 985.659C-494.281 1099.32 -518.404 1239.53 -407.837 1267.82C-285.521 1299.12 -372.894 988.389 -246.641 987.577C-172.937 987.103 -155.191 1066.63 -83.0382 1081.68C21.835 1103.56 145.79 1111.14 181.826 1010.25C206.825 940.265 131.789 900.831 132.276 826.516C133.176 689.173 365.428 646.246 307.63 521.654Z" stroke="url(#paint2_linear_1794_78)" stroke-width="7"/>
<path opacity="0.166667" d="M310.719 504.475C268.714 417.142 174.358 437.789 93.905 383.762C-69.8293 273.811 -79.6272 80.4601 -271.602 35.252C-456.44 -8.27516 -643.258 4.57236 -739.268 168.406C-870.799 392.856 -274.508 413.239 -302.995 671.825C-318.053 808.514 -463.732 842.377 -474.288 979.487C-483.049 1093.28 -505.212 1233.82 -394.26 1260.56C-271.519 1290.15 -363.223 980.667 -236.993 978.093C-163.302 976.589 -144.448 1055.86 -72.0924 1069.9C33.0762 1090.32 157.125 1096.16 191.749 994.781C215.768 924.453 140.189 886.07 139.638 811.756C138.621 674.414 370.251 628.249 310.719 504.475Z" stroke="url(#paint3_linear_1794_78)" stroke-width="7"/>
<path opacity="0.208333" d="M313.637 487.171C270.417 400.433 176.358 422.395 95.1587 369.497C-70.0948 261.842 -82.5913 68.6473 -275.179 26.124C-460.606 -14.8182 -647.227 0.636502 -740.939 165.795C-869.325 392.059 -272.807 404.115 -297.68 663.073C-310.828 799.96 -456.02 835.852 -464.661 973.097C-471.833 1087 -492.031 1227.84 -380.717 1253.03C-257.575 1280.89 -353.59 972.726 -227.409 968.389C-153.747 965.858 -133.787 1044.85 -61.2424 1057.89C44.2009 1076.83 168.319 1080.95 201.525 979.09C224.559 908.434 148.451 871.11 146.863 796.81C143.928 659.496 374.891 610.101 313.637 487.171Z" stroke="url(#paint4_linear_1794_78)" stroke-width="7"/>
<path opacity="0.25" d="M316.382 469.744C271.955 383.617 178.212 406.89 96.2821 355.131C-70.4583 249.794 -85.6511 56.7927 -278.814 16.9625C-464.794 -21.3868 -651.181 -3.32797 -742.579 163.123C-867.792 391.157 -271.164 394.883 -292.419 654.164C-303.655 791.22 -448.332 829.137 -455.056 966.489C-460.636 1080.48 -478.866 1221.59 -367.211 1245.22C-243.692 1271.36 -344.001 964.567 -217.892 958.469C-144.272 954.909 -123.212 1033.62 -50.4923 1045.64C55.2052 1063.11 179.369 1065.49 211.149 963.18C233.194 892.209 156.573 855.951 153.948 781.681C149.096 644.421 379.347 591.806 316.382 469.744Z" stroke="url(#paint5_linear_1794_78)" stroke-width="7"/>
<path opacity="0.291667" d="M318.952 452.195C273.327 366.697 179.918 391.277 97.2736 340.667C-70.9213 237.668 -88.8073 44.8973 -282.507 7.76795C-469.005 -27.9808 -655.121 -7.32145 -744.186 160.389C-866.204 390.15 -269.582 385.545 -287.215 645.097C-296.536 782.297 -440.669 822.23 -445.475 959.662C-449.463 1073.72 -465.721 1215.07 -353.747 1237.14C-229.875 1261.56 -334.457 956.191 -208.446 948.332C-134.883 943.745 -112.726 1022.15 -39.8455 1033.16C66.0857 1049.15 190.271 1049.8 220.619 947.052C241.671 875.78 164.551 840.596 160.889 766.37C154.121 629.191 383.615 573.366 318.952 452.195Z" stroke="url(#paint6_linear_1794_78)" stroke-width="7"/>
<path opacity="0.333333" d="M321.347 434.527C274.533 349.675 181.476 375.556 98.1329 326.105C-71.4837 225.465 -92.0595 32.9628 -286.259 -1.45845C-473.238 -34.5998 -659.047 -11.3439 -745.762 157.594C-864.56 389.036 -268.06 376.101 -282.068 635.874C-289.472 773.191 -433.034 815.133 -435.92 952.619C-438.315 1066.72 -452.598 1208.28 -340.327 1228.79C-216.126 1251.47 -324.962 947.597 -199.073 937.98C-125.581 932.366 -102.331 1010.46 -29.3043 1020.44C76.8399 1034.95 201.022 1033.87 229.933 930.71C249.988 859.15 172.384 825.047 167.686 750.879C159.003 613.808 387.695 554.784 321.347 434.527Z" stroke="url(#paint7_linear_1794_78)" stroke-width="7"/>
<path opacity="0.375" d="M323.563 416.744C275.569 332.553 182.883 359.731 98.8569 311.449C-72.1483 213.186 -95.4098 20.9903 -290.071 -10.7162C-477.494 -41.2437 -662.961 -15.3957 -747.309 154.736C-862.863 387.814 -266.602 366.553 -276.982 626.496C-282.468 763.903 -425.43 807.845 -426.396 945.358C-427.198 1059.48 -439.503 1201.23 -326.957 1220.16C-202.451 1241.11 -315.519 938.787 -189.777 927.414C-116.37 920.774 -92.0323 998.533 -18.8733 1007.5C87.4631 1020.53 211.618 1017.7 239.085 914.154C258.14 842.322 180.067 809.305 174.334 735.21C163.739 598.273 391.584 536.063 323.563 416.744Z" stroke="url(#paint8_linear_1794_78)" stroke-width="7"/>
<path opacity="0.416667" d="M325.601 398.846C276.435 315.334 184.138 343.804 99.446 296.699C-72.9146 200.834 -98.8573 8.98137 -293.942 -20.0041C-481.773 -47.9118 -666.861 -19.4768 -748.825 151.816C-861.114 386.485 -265.208 356.9 -271.957 616.963C-275.525 754.433 -417.859 800.367 -416.905 937.88C-416.114 1052.01 -426.439 1193.91 -313.638 1211.27C-188.852 1230.48 -306.131 929.762 -180.559 916.634C-107.253 908.97 -81.8315 986.382 -8.55448 994.323C97.9535 1005.87 222.057 1001.31 248.076 897.388C266.125 825.296 187.599 793.373 180.832 719.365C168.326 582.59 395.281 517.204 325.601 398.846Z" stroke="url(#paint9_linear_1794_78)" stroke-width="7"/>
<path opacity="0.458333" d="M327.457 380.838C277.13 298.02 185.239 327.776 99.8978 281.858C-73.7844 188.409 -102.403 -3.0628 -297.874 -29.3216C-486.076 -54.6041 -670.749 -23.5876 -750.313 148.833C-859.315 385.047 -263.88 347.145 -266.997 607.277C-268.645 744.783 -410.324 792.699 -407.451 930.186C-405.066 1044.29 -413.409 1186.32 -300.377 1202.11C-175.335 1219.57 -296.8 920.522 -171.425 905.642C-98.2323 896.955 -71.7324 974.004 1.64827 980.922C108.307 990.977 232.334 984.69 256.9 880.413C273.941 808.077 194.977 777.252 187.178 703.346C172.763 566.759 398.782 498.211 327.457 380.838Z" stroke="url(#paint10_linear_1794_78)" stroke-width="7"/>
<path opacity="0.5" d="M329.13 362.721C277.652 280.614 186.185 311.649 100.211 266.928C-74.7586 175.913 -106.048 -15.1407 -301.866 -38.6678C-490.403 -61.3201 -674.625 -27.7282 -751.774 145.787C-857.467 383.499 -262.62 337.287 -262.104 597.437C-261.832 734.953 -402.829 784.843 -398.036 922.276C-394.058 1036.34 -400.417 1178.47 -287.175 1192.68C-161.902 1208.4 -287.531 911.068 -162.375 894.439C-89.3112 884.731 -61.7382 961.403 11.732 967.295C118.521 975.86 242.448 967.842 265.556 863.232C281.585 790.665 202.198 760.946 193.368 687.156C177.047 550.784 402.088 479.087 329.13 362.721Z" stroke="url(#paint11_linear_1794_78)" stroke-width="7"/>
<path opacity="0.541667" d="M330.619 344.497C278 263.117 186.975 295.427 100.386 251.91C-75.8382 163.347 -109.792 -27.2511 -305.92 -48.0418C-494.755 -68.0595 -678.489 -31.8988 -753.208 142.676C-855.572 381.841 -261.428 327.329 -257.28 587.446C-255.088 724.945 -395.374 776.798 -388.663 914.151C-383.093 1028.14 -387.467 1170.35 -274.038 1182.98C-148.557 1196.95 -278.325 901.402 -153.414 883.026C-80.4928 872.299 -51.8519 948.579 21.6934 953.445C128.591 960.518 252.395 950.77 274.039 845.848C289.054 773.064 209.26 744.457 199.4 670.797C181.177 534.666 405.195 459.833 330.619 344.497Z" stroke="url(#paint12_linear_1794_78)" stroke-width="7"/>
<path opacity="0.583333" d="M331.923 326.171C278.173 245.533 187.608 279.111 100.419 236.807C-77.024 150.713 -113.636 -39.3925 -310.034 -57.4429C-499.131 -74.8221 -682.343 -36.0995 -754.617 139.502C-853.631 380.073 -260.306 317.27 -252.527 577.304C-248.415 714.759 -387.964 768.566 -379.335 905.811C-372.174 1019.72 -374.562 1161.97 -260.968 1173.01C-135.305 1185.23 -269.187 891.523 -144.544 871.405C-71.7796 859.661 -42.0765 935.533 31.5295 939.372C138.516 944.952 262.171 933.476 282.349 828.262C296.346 755.276 216.16 727.785 205.272 654.271C185.151 518.407 408.102 440.454 331.923 326.171Z" stroke="url(#paint13_linear_1794_78)" stroke-width="7"/>
<path opacity="0.625" d="M333.04 307.743C278.169 227.864 188.082 262.703 100.311 221.62C-78.3168 138.012 -117.579 -51.5636 -314.211 -66.87C-503.531 -81.6073 -686.185 -40.3305 -756 136.263C-851.646 378.193 -259.255 307.112 -247.847 567.012C-241.816 704.396 -380.6 760.146 -370.056 897.258C-361.305 1011.05 -361.706 1153.33 -247.97 1162.78C-122.148 1173.24 -260.117 881.433 -135.768 859.577C-63.1744 846.818 -32.4149 922.268 41.2376 925.079C148.291 929.164 271.774 915.964 290.481 810.478C303.457 737.303 222.896 710.935 210.983 637.579C188.966 502.01 410.807 420.952 333.04 307.743Z" stroke="url(#paint14_linear_1794_78)" stroke-width="7"/>
<path opacity="0.666667" d="M333.969 289.217C277.988 210.112 188.396 246.205 100.06 206.352C-79.7177 125.246 -121.623 -63.7628 -318.449 -76.3223C-507.957 -88.4149 -690.016 -44.5918 -757.359 132.959C-849.618 376.201 -258.278 296.856 -243.241 556.571C-235.293 693.858 -373.285 751.54 -360.828 888.491C-350.489 1002.15 -348.904 1144.42 -235.046 1152.28C-109.09 1160.98 -251.121 871.133 -127.088 847.543C-54.6803 833.772 -22.8704 908.785 50.8142 910.567C157.914 913.157 281.201 898.234 298.433 792.497C310.387 719.148 229.465 693.907 216.529 620.725C192.621 485.476 413.309 401.329 333.969 289.217Z" stroke="url(#paint15_linear_1794_78)" stroke-width="7"/>
<path opacity="0.708333" d="M334.708 270.596C277.628 192.28 188.549 229.62 99.6647 191.005C-81.228 112.417 -125.768 -75.9889 -322.751 -85.799C-512.409 -95.2444 -693.839 -48.8837 -758.696 129.59C-847.549 374.096 -257.375 286.503 -238.714 545.983C-228.849 683.145 -366.022 742.749 -351.654 879.512C-339.729 993.017 -336.158 1135.25 -222.202 1141.52C-96.1367 1148.46 -242.2 860.624 -118.509 835.304C-46.3006 820.523 -13.4464 895.085 60.2559 895.838C167.382 896.933 290.448 880.29 306.202 774.323C317.13 700.814 235.864 676.705 221.907 603.711C196.114 468.809 415.605 381.589 334.708 270.596Z" stroke="url(#paint16_linear_1794_78)" stroke-width="7"/>
<path opacity="0.75" d="M335.256 251.881C277.088 174.37 188.539 212.95 99.1243 175.58C-82.848 99.5248 -130.015 -88.2403 -327.115 -95.2992C-516.886 -102.096 -697.651 -53.2064 -760.01 126.156C-845.441 371.879 -256.547 276.053 -234.265 535.248C-222.486 672.259 -358.813 733.772 -342.537 870.322C-329.029 983.648 -323.472 1125.82 -209.439 1130.5C-83.2897 1135.68 -233.358 849.906 -110.033 822.863C-38.0372 807.075 -4.14517 881.171 69.5604 880.895C176.691 880.493 299.513 862.134 313.786 755.957C323.687 682.303 242.092 659.332 227.118 586.539C199.443 452.011 417.695 361.734 335.256 251.881Z" stroke="url(#paint17_linear_1794_78)" stroke-width="7"/>
<path opacity="0.791667" d="M335.611 233.076C276.367 156.385 188.365 196.198 98.4377 160.079C-84.5788 86.5725 -134.363 -100.516 -331.542 -104.822C-521.39 -108.968 -701.454 -57.5598 -761.303 122.655C-843.295 369.547 -255.796 265.509 -229.897 524.367C-216.207 661.2 -351.662 724.611 -333.481 860.92C-318.392 974.047 -310.85 1116.12 -196.763 1119.21C-70.5535 1122.63 -224.597 838.982 -101.661 810.219C-29.8935 793.428 5.02982 867.043 78.7243 865.738C185.839 863.841 308.393 843.768 321.182 737.403C330.053 663.618 248.146 641.788 232.156 569.212C202.606 435.082 419.576 341.767 335.611 233.076Z" stroke="url(#paint18_linear_1794_78)" stroke-width="7"/>
<path opacity="0.833333" d="M335.774 214.184C275.464 138.327 188.027 179.365 97.6038 144.505C-86.4212 73.5612 -138.812 -112.814 -336.033 -114.367C-525.92 -115.862 -705.249 -61.9442 -762.576 119.089C-841.113 367.102 -255.123 254.871 -225.613 513.342C-210.013 649.971 -344.57 715.266 -324.487 851.308C-307.82 964.214 -298.296 1106.17 -184.177 1107.67C-57.9316 1109.32 -215.921 827.853 -93.3984 797.376C-21.8719 779.584 14.0758 852.705 87.7449 850.371C194.823 846.979 317.084 825.196 328.387 718.663C336.227 644.761 254.023 624.077 237.022 551.731C205.602 418.027 421.248 321.692 335.774 214.184Z" stroke="url(#paint19_linear_1794_78)" stroke-width="7"/>
<path opacity="0.875" d="M335.741 195.206C274.378 120.199 187.523 162.454 96.6217 128.86C-88.3758 60.4923 -143.364 -125.133 -340.587 -123.932C-530.476 -122.776 -709.035 -66.3597 -763.829 115.456C-838.895 364.541 -254.53 244.14 -221.413 502.174C-203.908 638.571 -337.54 705.739 -315.56 841.488C-297.318 954.149 -285.812 1095.96 -171.683 1095.86C-45.4276 1095.76 -207.331 816.518 -85.2463 784.334C-13.9752 765.545 22.9899 838.157 96.6192 834.795C203.639 829.907 325.585 806.42 335.399 699.739C342.207 625.735 259.721 606.201 241.712 534.099C208.428 400.848 422.708 301.511 335.741 195.206Z" stroke="url(#paint20_linear_1794_78)" stroke-width="7"/>
<path opacity="0.916667" d="M335.513 176.147C273.108 102.004 186.851 145.467 95.4902 113.146C-90.4439 47.3676 -148.018 -137.472 -345.205 -133.517C-535.06 -129.71 -712.814 -70.8063 -765.064 111.757C-836.645 361.866 -254.018 233.317 -217.302 490.863C-197.894 627.003 -330.574 696.03 -306.701 831.459C-286.888 943.855 -273.404 1085.49 -159.287 1083.8C-33.0453 1081.93 -198.832 804.981 -77.2083 771.095C-6.20651 751.313 31.7688 823.401 105.344 819.011C212.285 812.631 333.891 787.443 342.215 680.635C347.989 606.544 265.239 588.163 246.224 516.32C211.083 383.546 423.955 281.227 335.513 176.147Z" stroke="url(#paint21_linear_1794_78)" stroke-width="7"/>
<path opacity="0.958333" d="M335.087 157.008C271.654 83.7434 186.012 128.407 94.2085 97.3644C-92.6259 34.1885 -152.775 -149.829 -349.888 -143.122C-539.671 -136.664 -716.585 -75.2842 -766.281 107.991C-834.363 359.075 -253.588 222.404 -213.279 479.412C-191.972 615.268 -323.676 686.141 -297.914 821.223C-276.534 933.331 -261.073 1074.77 -146.992 1071.48C-20.7881 1067.85 -190.425 793.241 -69.2867 757.661C1.43196 736.889 40.4101 808.44 113.917 803.024C220.759 795.15 342.001 768.267 348.832 661.354C353.571 587.189 270.573 569.965 250.557 498.394C213.566 366.124 424.988 260.843 335.087 157.008Z" stroke="url(#paint22_linear_1794_78)" stroke-width="7"/>
<path opacity="0.0416667" d="M134.224 8.76215C56.6389 -49.3076 -17.5225 12.5748 -113.832 1.80202C-309.836 -20.1223 -407.806 -187.102 -598.965 -138.558C-783.016 -91.8187 -942.793 5.84021 -952.305 195.495C-965.336 455.319 -427.007 198.062 -332.873 440.584C-283.114 568.782 -396.697 666.086 -342.75 792.579C-297.978 897.559 -252.742 1032.45 -141.979 1004.94C-19.4459 974.507 -243.689 742.341 -132.911 681.771C-68.2404 646.411 -14.9144 708.016 55.7511 687.065C158.463 656.611 271.196 604.517 255.094 498.603C243.925 425.13 159.162 425.983 124.36 360.32C60.0396 238.966 244.181 91.0617 134.224 8.76215Z" stroke="url(#paint23_linear_1794_78)" stroke-width="7"/>
<path opacity="0.0833333" d="M143.819 14.5751C66.7436 -44.1695 -7.95494 17.0634 -104.166 5.45055C-299.972 -18.1834 -396.481 -186.012 -588.056 -139.138C-772.508 -94.0063 -933.132 2.25461 -944.298 191.819C-959.596 451.519 -419.043 198.97 -327.029 442.305C-278.39 570.932 -392.818 667.24 -339.977 794.199C-296.122 899.566 -252.065 1034.85 -141.066 1008.31C-18.2726 978.943 -240.481 744.828 -129.179 685.227C-64.2021 650.433 -11.4157 712.501 59.4299 692.167C162.404 662.611 275.586 611.503 260.41 505.452C249.882 431.885 165.116 431.998 130.887 366.033C67.6286 244.122 253.054 97.831 143.819 14.5751Z" stroke="url(#paint24_linear_1794_78)" stroke-width="7"/>
<path opacity="0.125" d="M153.332 20.3745C76.7723 -39.0405 1.54224 21.5382 -94.5642 9.08622C-290.156 -16.2555 -385.197 -184.92 -577.174 -139.719C-762.013 -96.1991 -923.47 -1.3436 -936.291 188.116C-953.854 447.673 -411.117 199.851 -321.23 443.979C-273.716 573.026 -388.98 668.332 -337.249 795.747C-294.315 901.493 -251.441 1037.16 -140.214 1011.58C-17.1689 983.291 -237.326 747.246 -125.508 688.619C-60.2299 654.393 -7.98715 716.919 63.0332 697.204C166.261 668.548 279.885 618.43 265.635 512.25C255.75 438.594 170.985 437.967 137.334 371.706C75.1414 249.248 261.836 104.58 153.332 20.3745Z" stroke="url(#paint25_linear_1794_78)" stroke-width="7"/>
<path opacity="0.166667" d="M162.763 26.1597C86.7251 -33.9211 10.9692 25.9988 -85.0249 12.7086C-280.388 -14.339 -373.954 -183.826 -566.318 -140.303C-751.529 -98.3973 -913.808 -4.95431 -928.281 184.386C-948.109 443.78 -403.231 200.703 -315.478 445.607C-269.091 575.063 -385.182 669.36 -334.565 797.222C-292.556 903.338 -250.867 1039.37 -139.421 1014.77C-16.134 987.551 -234.223 749.595 -121.897 691.945C-56.3231 658.29 -4.62805 721.27 66.5617 702.176C170.036 674.421 284.093 625.296 270.77 518.996C261.528 445.257 176.772 443.891 143.7 377.339C82.5785 254.342 270.529 111.309 162.763 26.1597Z" stroke="url(#paint26_linear_1794_78)" stroke-width="7"/>
<path opacity="0.208333" d="M172.113 31.93C96.6022 -28.8121 20.3263 30.4445 -75.5482 16.3171C-270.668 -12.4344 -362.751 -182.732 -555.487 -140.888C-741.058 -100.601 -904.146 -8.57757 -920.271 180.63C-942.361 439.84 -395.382 201.528 -309.77 447.188C-264.515 577.044 -381.424 670.324 -331.925 798.623C-290.844 905.102 -250.343 1041.49 -138.687 1017.86C-15.1669 991.724 -231.171 751.873 -118.346 695.206C-52.4813 662.125 -1.33773 725.553 70.0159 707.081C173.728 680.231 288.21 632.103 275.815 525.691C267.217 451.873 182.476 449.767 149.986 382.929C89.9402 259.404 279.131 118.017 172.113 31.93Z" stroke="url(#paint27_linear_1794_78)" stroke-width="7"/>
<path opacity="0.25" d="M181.381 37.6847C106.403 -23.714 29.6133 34.8746 -66.1343 19.9111C-260.996 -10.5419 -351.589 -181.636 -544.683 -141.477C-730.598 -102.81 -894.483 -12.2134 -912.259 176.846C-936.61 435.854 -387.572 202.324 -304.107 448.721C-259.987 578.968 -377.706 671.224 -329.328 799.95C-289.177 906.783 -249.869 1043.52 -138.011 1020.87C-14.2672 995.808 -228.17 754.081 -114.855 698.401C-48.7039 665.895 1.8842 729.768 73.3963 711.919C177.339 685.975 292.236 638.848 280.77 532.331C272.817 458.442 188.097 455.596 156.192 388.477C97.2265 264.433 287.644 124.702 181.381 37.6847Z" stroke="url(#paint28_linear_1794_78)" stroke-width="7"/>
<path opacity="0.291667" d="M190.568 43.423C116.129 -18.6277 38.8305 39.2886 -56.7829 23.4902C-251.371 -8.6622 -340.468 -180.541 -533.905 -142.067C-720.15 -105.025 -884.82 -15.8617 -904.244 173.035C-930.856 431.821 -379.801 203.091 -298.488 450.207C-255.507 580.834 -374.026 672.059 -326.773 801.202C-287.557 908.382 -249.443 1045.46 -137.391 1023.78C-13.4339 999.802 -225.219 756.218 -111.423 701.529C-44.9903 669.602 5.03847 733.914 76.7037 716.689C180.869 691.653 296.173 645.53 285.637 538.918C278.328 464.962 193.637 461.377 162.319 393.982C104.438 269.428 296.068 131.364 190.568 43.423Z" stroke="url(#paint29_linear_1794_78)" stroke-width="7"/>
<path opacity="0.333333" d="M199.674 49.1442C125.779 -13.5536 47.978 43.6859 -47.4938 27.0537C-241.794 -6.79554 -329.388 -179.445 -523.153 -142.661C-709.715 -107.245 -875.156 -19.5226 -896.228 169.198C-925.097 427.741 -372.067 203.829 -292.914 451.645C-251.074 582.642 -370.385 672.83 -324.261 802.38C-285.981 909.898 -249.065 1047.3 -136.828 1026.6C-12.6663 1003.71 -222.318 758.284 -108.048 704.59C-41.34 673.244 8.12563 737.99 79.9384 721.391C184.318 697.265 300.02 652.15 290.415 545.45C283.752 471.433 199.095 467.11 168.366 399.444C111.575 274.39 304.402 138.003 199.674 49.1442Z" stroke="url(#paint30_linear_1794_78)" stroke-width="7"/>
<path opacity="0.375" d="M208.699 54.8477C135.353 -8.49261 57.0561 48.0658 -38.267 30.6011C-232.264 -4.94242 -318.348 -178.35 -512.427 -143.258C-699.291 -109.472 -865.491 -23.1961 -888.209 165.333C-919.333 423.615 -364.37 204.537 -287.383 453.035C-246.687 584.392 -366.781 673.535 -321.789 803.483C-284.449 911.331 -248.734 1049.05 -136.321 1029.33C-11.9637 1007.52 -219.465 760.278 -104.732 707.583C-37.7525 676.82 11.1463 741.995 83.1011 726.024C187.687 702.81 303.779 658.707 295.105 551.927C289.088 477.854 204.473 472.792 174.335 404.861C118.637 279.316 312.647 144.617 208.699 54.8477Z" stroke="url(#paint31_linear_1794_78)" stroke-width="7"/>
<path opacity="0.416667" d="M217.642 60.5328C144.853 -3.4452 66.0648 52.4278 -29.1023 34.1319C-222.782 -3.10318 -307.349 -177.255 -501.728 -143.859C-688.878 -111.704 -855.826 -26.882 -880.188 161.442C-913.564 419.442 -356.711 205.215 -281.895 454.376C-242.347 586.083 -363.215 674.174 -319.358 804.51C-282.961 912.679 -248.448 1050.71 -135.868 1031.97C-11.3251 1011.24 -216.661 762.2 -101.472 710.508C-34.227 680.331 14.1011 745.93 86.1926 730.587C190.977 708.287 307.449 665.198 299.708 558.347C294.338 484.225 209.769 478.424 180.226 410.233C125.625 284.206 320.804 151.206 217.642 60.5328Z" stroke="url(#paint32_linear_1794_78)" stroke-width="7"/>
<path opacity="0.458333" d="M226.506 66.1986C154.277 1.58786 75.0044 56.7712 -19.9994 37.6455C-213.347 -1.27831 -296.391 -176.161 -491.053 -144.463C-678.478 -113.942 -846.159 -30.5805 -872.164 157.524C-907.79 415.223 -349.088 205.864 -276.45 455.667C-238.053 587.714 -359.684 674.748 -316.967 805.461C-281.515 913.944 -248.208 1052.27 -135.469 1034.52C-10.7496 1014.88 -213.905 764.049 -98.2691 713.364C-30.763 683.775 16.9909 749.794 89.2135 735.081C194.189 713.695 311.033 671.625 304.224 564.71C299.5 490.544 214.986 484.006 186.039 415.559C132.54 289.06 328.872 157.768 226.506 66.1986Z" stroke="url(#paint33_linear_1794_78)" stroke-width="7"/>
<path opacity="0.5" d="M235.288 71.8446C163.626 6.60603 83.8749 61.0955 -10.9583 41.1415C-203.959 0.531894 -285.474 -175.069 -480.405 -145.07C-668.089 -116.187 -836.491 -34.2914 -864.136 153.579C-902.01 410.957 -341.503 206.481 -271.047 456.91C-233.804 589.287 -356.19 675.255 -314.615 806.337C-280.111 915.125 -248.013 1053.73 -135.122 1036.97C-10.2368 1018.42 -211.195 765.825 -95.1218 716.151C-27.36 687.153 19.8159 753.585 92.1642 739.503C197.322 719.035 314.529 677.985 308.653 571.015C304.577 496.81 220.123 489.535 191.774 420.838C139.381 293.878 336.851 164.304 235.288 71.8446Z" stroke="url(#paint34_linear_1794_78)" stroke-width="7"/>
<path opacity="0.541667" d="M243.99 77.47C172.9 11.6086 92.6765 65.4 -1.97902 44.6192C-194.618 2.32694 -274.597 -173.979 -469.783 -145.682C-657.712 -118.438 -826.822 -38.0149 -856.106 149.607C-896.224 406.645 -333.954 207.068 -265.686 458.102C-229.599 590.799 -352.731 675.696 -312.302 807.135C-278.748 916.221 -247.861 1055.1 -134.828 1039.32C-9.78573 1021.86 -208.532 767.528 -92.0297 718.869C-24.0175 690.463 22.5769 757.304 95.0453 743.854C200.378 724.304 317.938 684.279 312.996 577.262C309.568 503.024 225.181 495.012 197.432 426.071C146.149 298.658 344.742 170.812 243.99 77.47Z" stroke="url(#paint35_linear_1794_78)" stroke-width="7"/>
<path opacity="0.583333" d="M252.612 83.0742C182.099 16.5949 101.409 69.6842 6.93886 48.0781C-185.323 4.10643 -263.761 -172.891 -459.187 -146.298C-647.346 -120.695 -817.151 -41.7508 -848.072 145.608C-890.432 402.286 -326.441 207.624 -260.366 459.244C-225.439 592.251 -349.307 676.07 -310.026 807.857C-277.426 917.231 -247.752 1056.38 -134.586 1041.58C-9.39549 1025.22 -205.915 769.157 -88.9923 721.516C-20.7347 693.705 25.2746 760.951 97.8576 748.133C203.357 729.503 321.262 690.506 317.254 583.449C314.474 509.185 230.159 500.436 203.014 431.255C152.845 303.4 352.546 177.292 252.612 83.0742Z" stroke="url(#paint36_linear_1794_78)" stroke-width="7"/>
<path opacity="0.625" d="M261.154 88.6564C191.224 21.5643 110.074 73.9474 15.7955 51.5178C-176.076 5.86996 -252.966 -171.805 -448.616 -146.919C-636.991 -122.958 -807.48 -45.4992 -840.033 141.583C-884.632 397.882 -318.964 208.148 -255.088 460.335C-221.322 593.642 -345.917 676.377 -307.788 808.502C-276.143 918.156 -247.684 1057.56 -134.394 1043.75C-9.06527 1028.48 -203.343 770.711 -86.0088 724.093C-17.5111 696.878 27.9096 764.523 100.602 752.34C206.26 734.631 324.5 696.664 321.427 589.576C319.295 515.29 235.06 505.807 208.519 436.391C159.468 308.103 360.262 183.743 261.154 88.6564Z" stroke="url(#paint37_linear_1794_78)" stroke-width="7"/>
<path opacity="0.666667" d="M269.616 94.2159C200.274 26.5161 118.67 78.1891 24.5909 54.9376C-166.875 7.61713 -242.212 -170.722 -438.071 -147.544C-626.649 -125.228 -797.806 -49.26 -831.991 137.531C-878.825 393.431 -311.522 208.641 -249.849 461.375C-217.249 594.972 -342.561 676.617 -305.586 809.069C-274.899 918.995 -247.658 1058.64 -134.251 1045.82C-8.79436 1031.64 -200.815 772.191 -83.0787 726.599C-14.3462 699.983 30.4825 768.021 103.278 756.473C209.087 739.687 327.654 702.753 325.515 595.643C324.032 521.341 239.883 511.123 213.948 441.478C166.019 312.767 367.89 190.164 269.616 94.2159Z" stroke="url(#paint38_linear_1794_78)" stroke-width="7"/>
<path opacity="0.708333" d="M277.998 99.752C209.25 31.4497 127.198 82.4086 33.3255 58.337C-157.72 9.34753 -231.498 -169.642 -427.552 -148.175C-616.317 -127.505 -788.131 -53.0333 -823.945 133.452C-873.009 388.934 -304.116 209.101 -244.651 462.364C-213.218 596.24 -339.237 676.789 -303.42 809.559C-273.694 919.748 -247.672 1059.63 -134.158 1047.8C-8.58169 1034.71 -198.331 773.597 -80.2013 729.033C-11.2391 703.018 32.9941 771.445 105.888 760.532C211.839 744.67 330.724 708.772 329.52 601.648C328.685 527.336 244.628 516.384 219.303 446.515C172.498 317.391 375.432 196.554 277.998 99.752Z" stroke="url(#paint39_linear_1794_78)" stroke-width="7"/>
<path opacity="0.75" d="M286.301 105.264C218.152 36.3644 135.658 86.6053 41.9992 61.7154C-148.611 11.0607 -220.824 -168.566 -417.059 -148.81C-605.997 -129.789 -778.454 -56.8191 -815.894 129.346C-867.186 384.39 -296.745 209.529 -239.493 463.302C-209.229 597.447 -335.946 676.892 -301.289 809.97C-272.525 920.415 -247.725 1060.51 -134.112 1049.68C-8.42685 1037.69 -195.89 774.926 -77.3762 731.395C-8.18964 705.983 35.4448 774.793 108.431 764.517C214.516 749.58 333.71 714.721 333.441 607.59C333.254 533.274 249.297 521.588 224.582 451.502C178.906 321.974 382.886 202.912 286.301 105.264Z" stroke="url(#paint40_linear_1794_78)" stroke-width="7"/>
<path opacity="0.791667" d="M294.525 110.751C226.979 41.2596 144.051 90.7788 50.6123 65.0725C-139.549 12.7563 -210.192 -167.494 -406.591 -149.451C-595.688 -132.079 -768.775 -60.6172 -807.838 125.215C-861.354 379.801 -289.409 209.925 -234.373 464.187C-205.281 598.591 -332.687 676.928 -299.192 810.303C-271.394 920.994 -247.817 1061.3 -134.114 1051.46C-8.32864 1040.57 -193.492 776.18 -74.6025 733.685C-5.1968 708.878 37.8355 778.066 110.909 768.427C217.12 754.416 336.614 720.599 337.279 613.47C337.741 539.155 253.889 526.737 229.786 456.438C185.242 326.516 390.254 209.239 294.525 110.751Z" stroke="url(#paint41_linear_1794_78)" stroke-width="7"/>
<path opacity="0.833333" d="M302.67 116.213C235.733 46.1347 152.375 94.9283 59.165 68.4076C-130.532 14.4339 -199.599 -166.426 -396.149 -150.098C-585.39 -134.376 -759.095 -64.4278 -799.778 121.056C-855.513 375.166 -282.108 210.287 -229.293 465.02C-201.374 599.673 -329.459 676.895 -297.13 810.557C-270.298 921.487 -247.947 1062 -134.162 1053.14C-8.28639 1043.35 -191.136 777.358 -71.8797 735.902C-2.26016 711.701 40.1667 781.263 113.321 772.262C219.651 759.178 339.435 726.405 341.036 619.285C342.146 544.977 258.405 531.828 234.917 461.321C191.508 331.016 397.536 215.532 302.67 116.213Z" stroke="url(#paint42_linear_1794_78)" stroke-width="7"/>
<path opacity="0.875" d="M310.736 121.649C244.413 50.989 160.633 99.0533 67.6575 71.7202C-121.562 16.0932 -189.048 -165.362 -385.732 -150.75C-575.103 -136.681 -749.412 -68.2507 -791.712 116.871C-849.663 370.485 -274.84 210.616 -224.25 465.8C-197.508 600.691 -326.262 676.793 -295.1 810.732C-269.237 921.892 -248.113 1062.59 -134.255 1054.73C-8.29918 1046.04 -188.82 778.459 -69.2071 738.046C0.620967 714.453 42.4392 784.382 115.669 776.02C222.109 763.865 342.175 732.138 344.71 625.037C346.469 550.741 262.846 536.862 239.974 466.153C197.704 335.473 404.732 221.792 310.736 121.649Z" stroke="url(#paint43_linear_1794_78)" stroke-width="7"/>
<path opacity="0.916667" d="M318.723 127.058C253.02 55.8218 168.823 103.153 76.09 75.0098C-112.637 17.7336 -178.537 -164.304 -375.341 -151.408C-564.828 -138.992 -739.727 -72.086 -783.641 112.66C-843.803 365.758 -267.607 210.912 -219.246 466.527C-193.682 601.647 -323.095 676.622 -293.103 810.828C-268.211 922.209 -248.316 1063.09 -134.393 1056.22C-8.36622 1048.63 -186.545 779.484 -66.5841 740.116C3.44717 717.133 44.6536 787.425 117.954 779.702C224.496 768.476 344.834 737.798 348.304 630.723C350.711 556.445 267.212 541.837 244.958 470.931C203.83 339.888 411.842 228.017 318.723 127.058Z" stroke="url(#paint44_linear_1794_78)" stroke-width="7"/>
<path opacity="0.958333" d="M326.633 132.439C261.553 60.6325 176.947 107.227 84.4627 78.2758C-103.757 19.3549 -168.066 -163.251 -364.975 -152.073C-554.563 -141.311 -730.039 -75.9336 -775.564 108.422C-837.932 360.985 -260.407 211.173 -214.278 467.201C-189.894 602.539 -319.957 676.381 -291.137 810.844C-267.218 922.438 -248.553 1063.49 -134.575 1057.61C-8.48657 1051.12 -184.31 780.431 -64.01 742.111C6.21917 719.741 46.8106 790.389 120.176 783.306C226.811 773.011 347.412 743.384 351.816 636.343C354.872 562.09 271.504 546.753 249.869 475.655C209.886 344.258 418.866 234.208 326.633 132.439Z" stroke="url(#paint45_linear_1794_78)" stroke-width="7"/>
<path d="M334.464 137.792C270.014 65.4206 185.004 111.275 92.7758 81.5178C-94.9224 20.9567 -157.635 -162.203 -354.635 -152.744C-544.31 -143.637 -720.349 -79.7935 -767.481 104.158C-832.051 356.167 -253.241 211.401 -209.348 467.822C-186.146 603.366 -316.848 676.071 -289.202 810.78C-266.259 922.579 -248.825 1063.78 -134.8 1058.91C-8.65951 1053.51 -182.114 781.301 -61.4843 744.032C8.93745 722.276 48.9108 793.276 122.335 786.833C229.056 777.469 349.911 748.896 355.249 641.897C358.952 567.673 275.721 551.61 254.708 480.326C215.874 348.585 425.806 240.362 334.464 137.792Z" stroke="url(#paint46_linear_1794_78)" stroke-width="7"/>
<defs>
<linearGradient id="paint0_linear_1794_78" x1="-411.949" y1="-42.7808" x2="-214.01" y2="1326.33" gradientUnits="userSpaceOnUse">
<stop offset="0.656668" stop-color="#E41E12"/>
<stop offset="1" stop-color="#FF6016"/>
</linearGradient>
<linearGradient id="paint1_linear_1794_78" x1="-416.809" y1="-49.6882" x2="-199.773" y2="1316.53" gradientUnits="userSpaceOnUse">
<stop offset="0.656668" stop-color="#E41E12"/>
<stop offset="1" stop-color="#FF6016"/>
</linearGradient>
<linearGradient id="paint2_linear_1794_78" x1="-421.696" y1="-56.6116" x2="-185.606" y2="1306.44" gradientUnits="userSpaceOnUse">
<stop offset="0.656668" stop-color="#E41E12"/>
<stop offset="1" stop-color="#FF6016"/>
</linearGradient>
<linearGradient id="paint3_linear_1794_78" x1="-426.61" y1="-63.5505" x2="-171.512" y2="1296.07" gradientUnits="userSpaceOnUse">
<stop offset="0.656668" stop-color="#E41E12"/>
<stop offset="1" stop-color="#FF6016"/>
</linearGradient>
<linearGradient id="paint4_linear_1794_78" x1="-431.551" y1="-70.5046" x2="-157.495" y2="1285.42" gradientUnits="userSpaceOnUse">
<stop offset="0.656668" stop-color="#E41E12"/>
<stop offset="1" stop-color="#FF6016"/>
</linearGradient>
<linearGradient id="paint5_linear_1794_78" x1="-436.519" y1="-77.4735" x2="-143.558" y2="1274.5" gradientUnits="userSpaceOnUse">
<stop offset="0.656668" stop-color="#E41E12"/>
<stop offset="1" stop-color="#FF6016"/>
</linearGradient>
<linearGradient id="paint6_linear_1794_78" x1="-441.516" y1="-84.4569" x2="-129.707" y2="1263.29" gradientUnits="userSpaceOnUse">
<stop offset="0.656668" stop-color="#E41E12"/>
<stop offset="1" stop-color="#FF6016"/>
</linearGradient>
<linearGradient id="paint7_linear_1794_78" x1="-446.54" y1="-91.4542" x2="-115.944" y2="1251.81" gradientUnits="userSpaceOnUse">
<stop offset="0.656668" stop-color="#E41E12"/>
<stop offset="1" stop-color="#FF6016"/>
</linearGradient>
<linearGradient id="paint8_linear_1794_78" x1="-451.593" y1="-98.4652" x2="-102.274" y2="1240.05" gradientUnits="userSpaceOnUse">
<stop offset="0.656668" stop-color="#E41E12"/>
<stop offset="1" stop-color="#FF6016"/>
</linearGradient>
<linearGradient id="paint9_linear_1794_78" x1="-456.673" y1="-105.489" x2="-88.7001" y2="1228.02" gradientUnits="userSpaceOnUse">
<stop offset="0.656668" stop-color="#E41E12"/>
<stop offset="1" stop-color="#FF6016"/>
</linearGradient>
<linearGradient id="paint10_linear_1794_78" x1="-461.783" y1="-112.527" x2="-75.2266" y2="1215.71" gradientUnits="userSpaceOnUse">
<stop offset="0.656668" stop-color="#E41E12"/>
<stop offset="1" stop-color="#FF6016"/>
</linearGradient>
<linearGradient id="paint11_linear_1794_78" x1="-466.921" y1="-119.576" x2="-61.8572" y2="1203.14" gradientUnits="userSpaceOnUse">
<stop offset="0.656668" stop-color="#E41E12"/>
<stop offset="1" stop-color="#FF6016"/>
</linearGradient>
<linearGradient id="paint12_linear_1794_78" x1="-472.088" y1="-126.638" x2="-48.5958" y2="1190.29" gradientUnits="userSpaceOnUse">
<stop offset="0.656668" stop-color="#E41E12"/>
<stop offset="1" stop-color="#FF6016"/>
</linearGradient>
<linearGradient id="paint13_linear_1794_78" x1="-477.284" y1="-133.711" x2="-35.4459" y2="1177.18" gradientUnits="userSpaceOnUse">
<stop offset="0.656668" stop-color="#E41E12"/>
<stop offset="1" stop-color="#FF6016"/>
</linearGradient>
<linearGradient id="paint14_linear_1794_78" x1="-482.509" y1="-140.796" x2="-22.4111" y2="1163.8" gradientUnits="userSpaceOnUse">
<stop offset="0.656668" stop-color="#E41E12"/>
<stop offset="1" stop-color="#FF6016"/>
</linearGradient>
<linearGradient id="paint15_linear_1794_78" x1="-487.763" y1="-147.891" x2="-9.49526" y2="1150.15" gradientUnits="userSpaceOnUse">
<stop offset="0.656668" stop-color="#E41E12"/>
<stop offset="1" stop-color="#FF6016"/>
</linearGradient>
<linearGradient id="paint16_linear_1794_78" x1="-493.047" y1="-154.997" x2="3.29741" y2="1136.24" gradientUnits="userSpaceOnUse">
<stop offset="0.656668" stop-color="#E41E12"/>
<stop offset="1" stop-color="#FF6016"/>
</linearGradient>
<linearGradient id="paint17_linear_1794_78" x1="-498.361" y1="-162.112" x2="15.964" y2="1122.07" gradientUnits="userSpaceOnUse">
<stop offset="0.656668" stop-color="#E41E12"/>
<stop offset="1" stop-color="#FF6016"/>
</linearGradient>
<linearGradient id="paint18_linear_1794_78" x1="-503.704" y1="-169.238" x2="28.5005" y2="1107.64" gradientUnits="userSpaceOnUse">
<stop offset="0.656668" stop-color="#E41E12"/>
<stop offset="1" stop-color="#FF6016"/>
</linearGradient>
<linearGradient id="paint19_linear_1794_78" x1="-509.077" y1="-176.372" x2="40.9033" y2="1092.95" gradientUnits="userSpaceOnUse">
<stop offset="0.656668" stop-color="#E41E12"/>
<stop offset="1" stop-color="#FF6016"/>
</linearGradient>
<linearGradient id="paint20_linear_1794_78" x1="-514.48" y1="-183.516" x2="53.1691" y2="1078" gradientUnits="userSpaceOnUse">
<stop offset="0.656668" stop-color="#E41E12"/>
<stop offset="1" stop-color="#FF6016"/>
</linearGradient>
<linearGradient id="paint21_linear_1794_78" x1="-519.914" y1="-190.667" x2="65.2939" y2="1062.8" gradientUnits="userSpaceOnUse">
<stop offset="0.656668" stop-color="#E41E12"/>
<stop offset="1" stop-color="#FF6016"/>
</linearGradient>
<linearGradient id="paint22_linear_1794_78" x1="-525.377" y1="-197.827" x2="77.2744" y2="1047.35" gradientUnits="userSpaceOnUse">
<stop offset="0.656668" stop-color="#E41E12"/>
<stop offset="1" stop-color="#FF6016"/>
</linearGradient>
<linearGradient id="paint23_linear_1794_78" x1="-782.08" y1="-154.622" x2="71.9981" y2="933.586" gradientUnits="userSpaceOnUse">
<stop offset="0.00599976" stop-color="#FF6016"/>
<stop offset="0.701" stop-color="#E41E12"/>
</linearGradient>
<linearGradient id="paint24_linear_1794_78" x1="-771.024" y1="-156.799" x2="73.525" y2="938.821" gradientUnits="userSpaceOnUse">
<stop offset="0.00599976" stop-color="#FF6016"/>
<stop offset="0.701" stop-color="#E41E12"/>
</linearGradient>
<linearGradient id="paint25_linear_1794_78" x1="-759.981" y1="-158.977" x2="74.9754" y2="943.971" gradientUnits="userSpaceOnUse">
<stop offset="0.00599976" stop-color="#FF6016"/>
<stop offset="0.701" stop-color="#E41E12"/>
</linearGradient>
<linearGradient id="paint26_linear_1794_78" x1="-748.95" y1="-161.155" x2="76.3499" y2="949.038" gradientUnits="userSpaceOnUse">
<stop offset="0.00599976" stop-color="#FF6016"/>
<stop offset="0.701" stop-color="#E41E12"/>
</linearGradient>
<linearGradient id="paint27_linear_1794_78" x1="-737.93" y1="-163.334" x2="77.6495" y2="954.019" gradientUnits="userSpaceOnUse">
<stop offset="0.00599976" stop-color="#FF6016"/>
<stop offset="0.701" stop-color="#E41E12"/>
</linearGradient>
<linearGradient id="paint28_linear_1794_78" x1="-726.923" y1="-165.513" x2="78.8747" y2="958.914" gradientUnits="userSpaceOnUse">
<stop offset="0.00599976" stop-color="#FF6016"/>
<stop offset="0.701" stop-color="#E41E12"/>
</linearGradient>
<linearGradient id="paint29_linear_1794_78" x1="-715.929" y1="-167.693" x2="80.0264" y2="963.723" gradientUnits="userSpaceOnUse">
<stop offset="0.00599976" stop-color="#FF6016"/>
<stop offset="0.701" stop-color="#E41E12"/>
</linearGradient>
<linearGradient id="paint30_linear_1794_78" x1="-704.946" y1="-169.875" x2="81.1053" y2="968.444" gradientUnits="userSpaceOnUse">
<stop offset="0.00599976" stop-color="#FF6016"/>
<stop offset="0.701" stop-color="#E41E12"/>
</linearGradient>
<linearGradient id="paint31_linear_1794_78" x1="-693.976" y1="-172.057" x2="82.1121" y2="973.078" gradientUnits="userSpaceOnUse">
<stop offset="0.00599976" stop-color="#FF6016"/>
<stop offset="0.701" stop-color="#E41E12"/>
</linearGradient>
<linearGradient id="paint32_linear_1794_78" x1="-683.018" y1="-174.241" x2="83.0477" y2="977.623" gradientUnits="userSpaceOnUse">
<stop offset="0.00599976" stop-color="#FF6016"/>
<stop offset="0.701" stop-color="#E41E12"/>
</linearGradient>
<linearGradient id="paint33_linear_1794_78" x1="-672.072" y1="-176.425" x2="83.9129" y2="982.08" gradientUnits="userSpaceOnUse">
<stop offset="0.00599976" stop-color="#FF6016"/>
<stop offset="0.701" stop-color="#E41E12"/>
</linearGradient>
<linearGradient id="paint34_linear_1794_78" x1="-661.138" y1="-178.612" x2="84.7084" y2="986.447" gradientUnits="userSpaceOnUse">
<stop offset="0.00599976" stop-color="#FF6016"/>
<stop offset="0.701" stop-color="#E41E12"/>
</linearGradient>
<linearGradient id="paint35_linear_1794_78" x1="-650.216" y1="-180.799" x2="85.4348" y2="990.723" gradientUnits="userSpaceOnUse">
<stop offset="0.00599976" stop-color="#FF6016"/>
<stop offset="0.701" stop-color="#E41E12"/>
</linearGradient>
<linearGradient id="paint36_linear_1794_78" x1="-639.306" y1="-182.989" x2="86.0931" y2="994.909" gradientUnits="userSpaceOnUse">
<stop offset="0.00599976" stop-color="#FF6016"/>
<stop offset="0.701" stop-color="#E41E12"/>
</linearGradient>
<linearGradient id="paint37_linear_1794_78" x1="-628.408" y1="-185.18" x2="86.6842" y2="999.003" gradientUnits="userSpaceOnUse">
<stop offset="0.00599976" stop-color="#FF6016"/>
<stop offset="0.701" stop-color="#E41E12"/>
</linearGradient>
<linearGradient id="paint38_linear_1794_78" x1="-617.523" y1="-187.373" x2="87.2087" y2="1003.01" gradientUnits="userSpaceOnUse">
<stop offset="0.00599976" stop-color="#FF6016"/>
<stop offset="0.701" stop-color="#E41E12"/>
</linearGradient>
<linearGradient id="paint39_linear_1794_78" x1="-606.649" y1="-189.567" x2="87.6676" y2="1006.92" gradientUnits="userSpaceOnUse">
<stop offset="0.00599976" stop-color="#FF6016"/>
<stop offset="0.701" stop-color="#E41E12"/>
</linearGradient>
<linearGradient id="paint40_linear_1794_78" x1="-595.788" y1="-191.764" x2="88.0613" y2="1010.73" gradientUnits="userSpaceOnUse">
<stop offset="0.00599976" stop-color="#FF6016"/>
<stop offset="0.701" stop-color="#E41E12"/>
</linearGradient>
<linearGradient id="paint41_linear_1794_78" x1="-584.939" y1="-193.963" x2="88.3911" y2="1014.45" gradientUnits="userSpaceOnUse">
<stop offset="0.00599976" stop-color="#FF6016"/>
<stop offset="0.701" stop-color="#E41E12"/>
</linearGradient>
<linearGradient id="paint42_linear_1794_78" x1="-574.101" y1="-196.164" x2="88.6575" y2="1018.08" gradientUnits="userSpaceOnUse">
<stop offset="0.00599976" stop-color="#FF6016"/>
<stop offset="0.701" stop-color="#E41E12"/>
</linearGradient>
<linearGradient id="paint43_linear_1794_78" x1="-563.276" y1="-198.368" x2="88.8615" y2="1021.62" gradientUnits="userSpaceOnUse">
<stop offset="0.00599976" stop-color="#FF6016"/>
<stop offset="0.701" stop-color="#E41E12"/>
</linearGradient>
<linearGradient id="paint44_linear_1794_78" x1="-552.462" y1="-200.574" x2="89.0039" y2="1025.06" gradientUnits="userSpaceOnUse">
<stop offset="0.00599976" stop-color="#FF6016"/>
<stop offset="0.701" stop-color="#E41E12"/>
</linearGradient>
<linearGradient id="paint45_linear_1794_78" x1="-541.661" y1="-202.783" x2="89.0855" y2="1028.4" gradientUnits="userSpaceOnUse">
<stop offset="0.00599976" stop-color="#FF6016"/>
<stop offset="0.701" stop-color="#E41E12"/>
</linearGradient>
<linearGradient id="paint46_linear_1794_78" x1="-530.871" y1="-204.994" x2="89.1071" y2="1031.64" gradientUnits="userSpaceOnUse">
<stop offset="0.00599976" stop-color="#FF6016"/>
<stop offset="0.701" stop-color="#E41E12"/>
</linearGradient>
</defs>
</svg>
